#N canvas 827 239 527 327 12;
#X obj 59 272 tgl 25 0 empty empty empty 17 7 0 10 #191919 #e1e1e1 #e1e1e1 0 1;
#X msg 257 90 send PdClient1;
#X msg 163 117 disconnect;
#X obj 59 214 netsend;
#X obj 93 496 tgl 25 0 empty empty empty 17 7 0 10 #191919 #e1e1e1 #e1e1e1 0 1;
#X msg 287 386 disconnect;
#X obj 93 454 netsend -u -b;
#X msg 214 352 connect localhost 5555;
#X obj 93 312 list append;
#X msg 444 117 send unsubscribe esp_testchannel;
#X obj 143 272 bng 25 250 50 0 empty empty empty 17 7 0 10 #191919 #e1e1e1 #e1e1e1;
#X msg 398 90 send subscribe testchannel;
#X text 59 62 Step 1 - Connect to OOCSI;
#X msg 59 90 connect oocsi.id.tue.nl 4444;
#X text 398 62 Step 3 -Subscribe to channel;
#X text 124 213 receiving data from oocsi;
#X obj 93 352 oscformat oocsi;
#X text 189 453 send data to Max as UDP (binary) via OSC;
#X text 214 324 Step 4 - Start talking to Max;
#X text 257 62 Step 2 - Set client ID;
#X connect 1 0 3 0 32.................BA...ry+++uP....67+++mF....;
#X connect 2 0 3 0 32.................m....j4++++I....Y9+++6D....;
#X connect 3 0 0 0 32.................T..........E.........bB....;
#X connect 3 1 10 0 32.................T....HC....E....x....bB....;
#X connect 3 1 8 0 32.................n..........J.........7D....;
#X connect 5 0 6 0 32.................Y....f0+++eF....X8+++GC....;
#X connect 6 0 4 0 32.................L..........C.........bA....;
#X connect 7 0 6 0 32.................b....D5+++OG....g9+++OE....;
#X connect 8 0 16 0 32.................K.........vB.........TA....;
#X connect 9 0 3 0 32.................m.....n++++I.....5+++6D....;
#X connect 11 0 3 0 32.................BA...3p+++uP....t5+++mF....;
#X connect 13 0 3 0 32.................0.........PM.........jF....;
#X connect 16 0 6 0 32.................p.........fJ.........LE....;
