#N canvas 827 239 450 166 12;
#X obj 0 0 cnv 15 450 138 empty empty empty 20 12 0 14 #30889f #e1e1e1 0;
#X obj 158 377 tgl 25 0 status empty empty 17 7 0 10 #191919 #e1e1e1 #e1e1e1 0 1;
#X obj 158 301 netsend;
#X obj 192 638 tgl 25 0 empty empty empty 17 7 0 10 #191919 #e1e1e1 #e1e1e1 0 1;
#X obj 192 596 netsend -u -b;
#X obj 419 419 bng 25 250 50 0 ping empty empty 17 7 0 10 #191919 #e1e1e1 #e1e1e1;
#X text 288 594 send data to Max as UDP (binary) via OSC;
#X text 223 295 receiving data from oocsi via TPC;
#N canvas 733 172 450 300 reconnect 0;
#X obj 75 180 timer 60 permin;
#X obj 155 143 metro 1 60 permin;
#X floatatom 75 248 3 0 0 0 - - - 24;
#X obj 75 396 tgl 25 0 empty empty empty 17 7 0 10 #191919 #e1e1e1 #e1e1e1 0 1;
#X obj 75 213 round 1;
#X obj 75 480 s reconnect;
#X obj 75 441 sel 1;
#X obj 75 55 inlet;
#X obj 75 87 bng 25 250 50 0 empty empty empty 17 7 0 10 #191919 #e1e1e1 #e1e1e1;
#X obj 75 355 change;
#X text 254 306 ping time (change if necessary);
#X obj 150 248 tgl 30 0 empty empty empty 17 7 0 10 #191919 #e1e1e1 #e1e1e1 0 1;
#X obj 75 309 expr $f1 >= $f3 && $f2 == 0;
#X obj 150 213 r status;
#X floatatom 226 254 5 0 0 0 - - - 12;
#X obj 226 213 loadmess 60;
#X connect 0 0 4 0 32.................G.........vA.........3.....;
#X connect 1 0 0 1 32.................I.........PB.........HA....;
#X connect 2 0 12 0 32.................P..........D.........7A....;
#X connect 3 0 6 0 32.................J.........fB.........PA....;
#X connect 4 0 2 0 32.................H..........B..........A....;
#X connect 6 0 5 0 32.................J.........fB.........PA....;
#X connect 7 0 8 0 32.................G.........vA.........z.....;
#X connect 8 0 0 0 32.................h.........fH.........PD....;
#X connect 8 0 1 0 32.................P.....E....D....PA...7A....;
#X connect 9 0 3 0 32.................K.........vB.........XA....;
#X connect 11 0 12 1 32.................P..........D.........7A....;
#X connect 12 0 9 0 32.................N.........fC.........rA....;
#X connect 13 0 11 0 32.................H..........B..........A....;
#X connect 14 0 12 2 32.................S.........vD.........TB....;
#X connect 15 0 14 0 32.................K.........vB.........XA....;
#X restore 419 464 pd reconnect;
#X text 10 8 Step 1 - Connect to OOCSI;
#X listbox 219 41 14 0 0 1 - ID id 12;
#X listbox 219 73 14 0 0 1 - CHANNEL channel 12;
#X listbox 219 10 14 0 0 1 - HOST host 12;
#X listbox 360 10 6 0 0 1 - PORT port 12;
#X listbox 219 105 6 0 0 1 - OSC-PORT osc-port 12;
#X obj 386 73 bng 18 250 50 0 reset empty empty 35 16 0 24 #191919 #e1e1e1 #e1e1e1;
#X obj 195 10 tgl 18 0 connect CONNECT empty 35 14 0 24 #191919 #e1e1e1 #e1e1e1 0 1;
#N canvas 733 172 450 300 init 0;
#X obj 58 50 loadbang;
#X obj 58 86 bng 25 250 50 0 empty empty empty 17 7 0 10 #191919 #e1e1e1 #e1e1e1;
#X msg 472 225 symbol PdClient1;
#X obj 197 256 s HOST;
#X obj 472 256 s ID;
#X obj 610 256 s CHANNEL;
#X obj 906 256 s OSC-PORT;
#X msg 197 224 symbol oocsi.id.tue.nl;
#X msg 354 224 4444;
#X msg 906 225 5555;
#X obj 1024 256 s OSC-CONNECT;
#X msg 58 224 1;
#X obj 58 128 t b b b b b b b b;
#X msg 1027 225 1;
#X msg 763 225 1;
#X obj 55 256 s CONNECT;
#X obj 354 256 s PORT;
#X obj 760 256 s SUBSCRIBE;
#X msg 610 225 symbol tesichannel;
#X connect 0 0 1 0 32.................I.........PB.........DA....;
#X connect 1 0 12 0 32.................I.........PB.........DA....;
#X connect 2 0 4 0 32.................F.........fA.........v.....;
#X connect 7 0 3 0 32.................G.........vA.........z.....;
#X connect 8 0 16 0 32.................G.........vA.........z.....;
#X connect 9 0 6 0 32.................F.........fA.........v.....;
#X connect 11 0 15 0 32.................G.........vA.........z.....;
#X connect 12 0 13 0 32.................Z....X7...fF....FO...3D....;
#X connect 12 1 9 0 32.................Z....7y...fF....+L...3D....;
#X connect 12 2 14 0 32.................Z....vo...fF....bJ...3D....;
#X connect 12 3 18 0 32.................Z....Te...fF....0G...3D....;
#X connect 12 4 2 0 32.................m....nU...vI....ZE...3D....;
#X connect 12 5 11 0 32.................g....j5+++eH....o9+++2D....;
#X connect 12 6 8 0 32.................Z....HL...fF....BC...zD....;
#X connect 12 7 7 0 32.................m....PA...vI....T....zD....;
#X connect 13 0 10 0 32.................F.........fA.........v.....;
#X connect 14 0 17 0 32.................F.........fA.........v.....;
#X connect 18 0 5 0 32.................F.........fA.........v.....;
#X restore 355 228 pd init;
#N canvas 733 172 450 300 setup 0;
#X obj 207 234 r host, f 6;
#X msg 53 285 disconnect, f 11;
#X obj 140 234 sel 1 0, f 7;
#X obj 140 501 outlet, f 6;
#X msg 140 285 connect, f 8;
#X obj 140 417 list trim, f 7;
#X obj 727 44 r reconnect, f 11;
#X obj 727 234 r channel, f 9;
#X obj 376 343 pack s s, f 11;
#X msg 376 285 send, f 6;
#X obj 140 343 pack s s float, f 22;
#X obj 619 343 pack s s s, f 19;
#X obj 619 234 sel 1 0, f 7;
#X msg 619 285 send subscribe, f 14;
#X msg 489 285 send unsubscribe, f 17;
#X obj 619 128 int, f 5;
#X obj 376 44 r b-id, f 6;
#X obj 376 100 t b, f 3;
#X obj 140 44 r connect, f 9;
#X obj 432 44 r id, f 4;
#X obj 619 44 r subscribe, f 11;
#X msg 781 128 1, f 3;
#X msg 730 128 1, f 3;
#X obj 275 234 r port, f 6;
#X obj 727 100 t b b b b, f 14;
#X obj 727 70 bng 25 250 50 0 empty reset empty 17 7 0 10 #191919 #e1e1e1 #e1e1e1;
#X connect 0 0 10 1 32.................s.........PK.........nE....;
#X connect 1 0 3 0 32.................VB...bE...fk....WA...vJ....;
#X connect 2 0 4 0 32.................P..........D..........B....;
#X connect 2 1 1 0 32.................K....r4++++B....a9+++CB....;
#X connect 4 0 10 0 32.................T..........E.........bB....;
#X connect 5 0 3 0 32.................T..........E.........fB....;
#X connect 6 0 25 0;
#X connect 7 0 11 2 32.................s.........PK.........nE....;
#X connect 8 0 5 0 32.................b....Tw+++OG....U7+++eC....;
#X connect 9 0 8 0 32.................T..........E.........bB....;
#X connect 10 0 5 0 32.................b..........G.........bC....;
#X connect 11 0 5 0 32.................b....Hh+++OG....h3+++eC....;
#X connect 12 0 13 0 32.................P..........D..........B....;
#X connect 12 1 14 0 32.................P.....2+++OD....v8+++CB....;
#X connect 13 0 11 0 32.................T..........E.........bB....;
#X connect 14 0 11 0 32.................T....HH....E....BB...bB....;
#X connect 15 0 12 0 32.................5.........fN.........LG....;
#X connect 16 0 17 0 32.................S.........vD.........TB....;
#X connect 17 0 9 0 32.................SA........vT.........XJ....;
#X connect 18 0 2 0 32.................VA........fU.........rJ....;
#X connect 19 0 17 0 32.................S....j7++++D....I++++WB....;
#X connect 19 0 8 1 32.................LB.........i.........fQ....;
#X connect 20 0 15 0 32.................S.........vD.........TB....;
#X connect 21 0 2 0 32.................q....LX++++J....C1+++OG....;
#X connect 22 0 12 0 32.................q....T4++++J....U9+++OG....;
#X connect 23 0 10 2 32.................s.........PK.........nE....;
#X connect 24 0 22 0 32.................E.........PA.........j.....;
#X connect 24 1 9 0 32.................IA...jn+++eR....I5+++KL....;
#X connect 24 2 21 0 32.................E.........PA.........j.....;
#X connect 24 3 1 0 32.................IA...HQ+++eR....Rz+++KL....;
#X connect 25 0 24 0;
#X restore 158 228 pd setup;
#X obj 195 105 tgl 18 0 osc-connect OSC-CONNECT empty 35 14 0 24 #191919 #e1e1e1 #e1e1e1 0 1;
#N canvas 733 172 450 300 max 0;
#X msg 53 135 disconnect;
#X obj 140 84 sel 1 0;
#X obj 140 301 outlet;
#X msg 140 135 connect;
#X obj 140 242 list trim;
#X obj 373 84 r reconnect;
#X obj 275 84 r osc-port;
#X obj 140 44 r osc-connect;
#X msg 207 135 symbol localhost;
#X obj 140 168 pack s s float, f 22;
#X connect 0 0 2 0 32.................GB...bE...vg....WA...LI....;
#X connect 1 0 3 0 32.................P..........D..........B....;
#X connect 1 1 0 0 32.................K....v4++++B....b9+++CB....;
#X connect 3 0 9 0 32.................G.........vA.........3.....;
#X connect 4 0 2 0;
#X connect 5 0 3 0 32.................P....fw+++OD....X7+++CB....;
#X connect 6 0 8 0 32.................P....36+++OD....99+++CB....;
#X connect 6 0 9 2;
#X connect 7 0 1 0 32.................K.........vB.........TA....;
#X connect 8 0 9 1 32.................G.........vA.........3.....;
#X connect 9 0 4 0 32.................b..........G.........bC....;
#X restore 129 524 pd max;
#X obj 616 596 s pd;
#X text 616 637 https://github.com/plugdata-team/plugdata/discussions/1788;
#X obj 616 524 loadbang;
#X msg 616 562 pluginmode;
#X text 616 682 pluginmode light;
#X text 616 660 pluginmode fangs;
#X obj 83 301 print;
#X obj 195 73 tgl 18 0 subscribe SUBSCRIBE empty 35 14 0 24 #191919 #e1e1e1 #e1e1e1 0 1;
#X text 10 39 Step 2 - Set Client ID, f 18;
#X text 323 8 host;
#X text 409 8 port;
#X text 323 39 id;
#X text 323 71 channel;
#X text 266 102 port;
#X text 10 71 Step 3 - Subscribe to channel, f 26;
#X text 10 103 Step 4 - Connect to OSC, f 22;
#X text 407 71 reset;
#X obj 386 105 bng 18 250 50 0 empty ping empty 35 16 0 24 #191919 #e1e1e1 #e1e1e1;
#X text 449 421 are there data coming through?;
#X text 191 378 connected?;
#X listbox 10 186 60 0 0 0 - data - 12;
#X text 513 463 reconnect if no data for 60sec;
#X obj 321 464 s data;
#X obj 419 381 speedlim 1000;
#X text 407 103 data;
#X obj 321 381 list append;
#X obj 192 524 oscformat oocsi;
#X obj 485 111 loadbang;
#X obj 485 186 metro 5000;
#X obj 485 146 tgl 25 0 empty empty empty 17 7 0 10 #191919 #e1e1e1 #e1e1e1 0 1;
#X text 560 226 OOCSI needs a ping to keep client alive;
#X msg 485 228 send ping;
#X connect 2 0 1 0 32.................c.........PG.........jC....;
#X connect 2 1 46 0 32.................e....DH...vG....AB...zC....;
#X connect 2 1 44 0 32.................e....LN...vG....iC...zC....;
#X connect 4 0 3 0 32.................L..........C.........bA....;
#X connect 18 0 27 0 32.................R....X6+++uD....19+++aC....;
#X connect 18 0 2 0 32.................a.........vF.........XC....;
#X connect 20 0 4 0 32.................a....7C...vF....+....TC....;
#X connect 23 0 24 0 32.................J.........fB.........LA....;
#X connect 24 0 21 0 32.................H..........B.........7.....;
#X connect 44 0 5 0 32.................J.........fB.........LA....;
#X connect 46 0 43 0 32.................f..........H..........D....;
#X connect 46 0 47 0 32.................u.....3++++K.....9+++yG....;
#X connect 47 0 4 0 32.................a.........vF.........TC....;
#X connect 48 0 50 0;
#X connect 49 0 52 0 32.................H..........B.........7.....;
#X connect 50 0 49 0;
#X connect 52 0 2 0 32.................R....fn+++uD....H5+++aC....;
#X coords 0 0 1 1 450 164 1 0 0;
