#N canvas 827 239 527 327 12;
#X obj 219 71 oscparse;
#X obj 219 107 list trim;
#X obj 381 36 loadbang;
#X msg 383 71 1;
#X obj 381 107 makefilename %d;
#X obj 219 36 netreceive -u -b 8001;
#X text 404 70 replace with board ID number;
#X obj 219 143 route tesi;
#X obj 383 179 loadbang;
#X msg 385 215 1;
#X obj 383 253 makefilename %d;
#X obj 219 179 route symbolnumber;
#X obj 219 299 route symbolnumber;
#X obj 220 367 tgl 21 0 empty empty empty 0 -11 0 12 #fcfcfc #000000 #000000 0 1;
#X obj 208 530 *~;
#X obj 38 475 osc~ 440;
#X obj 208 574 dac~;
#X floatatom 38 335 5 0 0 0 - - - 12;
#X floatatom 38 440 5 0 0 0 - - - 12;
#X obj 38 299 line;
#X obj 38 369 scale 20 4080 220 880 2;
#X obj 38 405 clip 220 880;
#X obj 219 405 * 0.8;
#X obj 219 475 line~;
#X msg 219 440 \$1 20;
#X obj 38 143 display -noflash;
#X obj 219 215 route push pot;
#X msg 38 264 \$1 50;
#X connect 0 0 1 0 32.................I.........PB.........DA....;
#X connect 1 0 7 0 32.................I.........PB.........DA....;
#X connect 1 0 25 0 32.................I....vz+++eB....L8+++GA....;
#X connect 2 0 3 0 32.................H..........B..........A....;
#X connect 3 0 4 0 32.................I.........PB.........DA....;
#X connect 4 0 11 1 32.................a....r7++++F....K++++WC....;
#X connect 5 0 0 0 32.................H..........B..........A....;
#X connect 7 0 11 0 32.................I.........PB.........DA....;
#X connect 8 0 9 0 32.................I.........PB.........DA....;
#X connect 9 0 10 0 32.................J.........fB.........LA....;
#X connect 10 0 12 1 32.................N....j7+++uC....I++++uA....;
#X connect 11 0 26 0 32.................I.........PB.........DA....;
#X connect 12 0 13 0 32.................Y.........PF.........DC....;
#X connect 13 0 22 0 32.................I.........PB.........DA....;
#X connect 14 0 16 0 32.................M.........PC.........jA....;
#X connect 14 0 16 1 32.................M.....A...PC....P....jA....;
#X connect 15 0 14 0 32.................L....nJ....C....pB...PB....;
#X connect 17 0 20 0 32.................H..........B..........A....;
#X connect 18 0 15 0 32.................I.........PB.........DA....;
#X connect 19 0 17 0 32.................I.........PB.........DA....;
#X connect 20 0 21 0 32.................I.........PB.........DA....;
#X connect 21 0 18 0 32.................H..........B..........A....;
#X connect 22 0 24 0 32.................H..........B..........A....;
#X connect 23 0 14 1 32.................R.........fD.........PB....;
#X connect 24 0 23 0 32.................H..........B..........A....;
#X connect 26 0 12 0 32.................g.........PH.........DD....;
#X connect 26 1 27 0 32.................J....jx+++uB....o7+++6A....;
#X connect 27 0 19 0 32.................H..........B..........A....;
