#N canvas 827 239 527 327 12;
#X obj 202 84 oscparse;
#X obj 202 145 list trim;
#X obj 364 57 loadbang;
#X msg 367 93 1;
#X obj 364 132 makefilename %d;
#X obj 202 57 netreceive -u -b 8001;
#X text 393 88 replace with board ID number;
#X obj 202 205 route tesi;
#X obj 202 236 route push;
#X obj 374 234 display;
#X obj 444 200 loadbang;
#X msg 447 236 1;
#X obj 444 275 makefilename %d;
#X obj 202 173 route symbolnumber;
#X obj 202 306 route symbolnumber;
#X obj 206 352 tgl 21 0 empty empty empty 0 -11 0 12 #fcfcfc #000000 #000000 0 1;
#X obj 191 508 *~;
#X obj 21 432 osc~ 440;
#X obj 191 546 dac~;
#X obj 21 183 route pot;
#X floatatom 21 309 5 0 0 0 - - - 12;
#X floatatom 21 397 5 0 0 0 - - - 12;
#X obj 35 253 line;
#X msg 29 213 \$1 80;
#X obj 21 340 scale 20 4080 220 880 2;
#X obj 21 371 clip 220 880;
#X obj 204 386 * 0.8;
#X obj 204 461 line~;
#X msg 204 426 \$1 20;
#X connect 0 0 1 0;
#X connect 1 0 13 0;
#X connect 2 0 3 0;
#X connect 3 0 4 0;
#X connect 4 0 13 1;
#X connect 5 0 0 0;
#X connect 7 0 8 0;
#X connect 8 0 14 0;
#X connect 8 1 19 0;
#X connect 10 0 11 0;
#X connect 11 0 12 0;
#X connect 12 0 14 1;
#X connect 13 0 7 0;
#X connect 14 0 15 0;
#X connect 15 0 26 0;
#X connect 16 0 18 0;
#X connect 16 0 18 1;
#X connect 17 0 16 0;
#X connect 19 0 23 0;
#X connect 20 0 24 0;
#X connect 21 0 17 0;
#X connect 22 0 20 0;
#X connect 23 0 22 0;
#X connect 24 0 25 0;
#X connect 25 0 21 0;
#X connect 26 0 28 0;
#X connect 27 0 16 1;
#X connect 28 0 27 0;
